<svg width="724" height="151" viewBox="0 0 724 151" fill="none" xmlns="http://www.w3.org/2000/svg">
<rect width="151" height="151" rx="25" fill="#D9D9D9"/>
<rect width="151" height="151" rx="25" fill="#17283F"/>
<rect x="0.397917" y="0.397917" width="150.204" height="150.204" rx="24.6021" stroke="white" stroke-opacity="0.2" stroke-width="0.795833"/>
<g filter="url(#filter0_d_1447_2831)">
<path d="M95.5985 71.9012C97.2082 72.4377 98.639 72.7954 99.8909 73.3319C107.581 76.7299 112.41 82.4529 114.02 90.5009C115.987 99.8008 112.589 108.564 104.541 114.466C100.07 117.685 95.062 119.116 89.5176 119.116C81.6482 119.116 73.7789 119.295 65.7306 119.295C64.6575 119.295 63.5844 118.937 62.6902 118.401C61.0805 117.327 60.7228 115.897 61.2594 114.108C61.7959 112.499 63.0479 111.426 65.0152 111.247C69.4865 111.247 73.7789 111.247 78.2501 111.247C82.5425 111.247 86.8349 111.247 91.1273 111.247C98.9967 111.247 105.793 104.272 106.151 96.4027C106.508 88.3548 100.606 81.5587 92.9158 79.9491C92.5581 79.9491 92.2004 79.9491 91.8427 79.9491C84.5098 79.9491 77.177 79.9491 69.8442 79.9491C69.6653 79.9491 69.4865 79.9491 69.1288 79.9491C69.1288 81.5587 69.1288 83.1683 69.1288 84.9567C69.1288 86.7452 69.1288 88.5336 69.1288 90.3221C69.1288 91.2163 69.3076 91.574 70.3807 91.574C74.852 91.574 79.3232 91.574 83.6156 91.574C84.331 91.574 85.0464 91.2163 85.5829 90.6798C88.8022 87.9971 91.6638 88.5336 93.9889 89.9644C97.0293 92.1105 97.7447 95.5085 96.3139 98.7277C94.5254 102.305 89.1599 103.557 86.1195 100.695C85.2252 99.8008 84.331 99.4431 83.0791 99.4431C77.177 99.4431 71.275 99.4431 65.3729 99.4431C62.6902 99.4431 61.2594 98.0123 61.2594 95.3297C61.2594 88.7125 61.2594 82.2741 61.2594 75.6569C61.2594 72.9742 62.1536 71.7223 65.0152 71.5435C69.3076 71.3646 73.6 71.3646 77.8924 71.3646C87.5503 71.3646 94.8831 62.959 93.4523 53.3014C92.3792 46.6842 87.1926 41.8554 81.2906 40.4246C79.8598 40.067 78.4289 40.067 76.9981 40.067C66.8037 40.067 56.4304 39.8881 46.236 40.067C43.911 40.067 41.5859 38.0997 41.5859 35.7747C41.5859 33.4497 43.7321 31.6613 46.236 31.6613C52.4957 31.6613 58.7555 31.6613 65.0152 31.6613C69.3076 31.6613 73.6 31.6613 77.8924 31.6613C88.6234 31.8402 98.1024 38.6362 101.143 49.3668C103.289 56.8783 101.679 63.8532 97.0293 70.2916C96.3139 70.8281 95.9562 71.1858 95.5985 71.9012Z" fill="#F54756"/>
<path d="M49.4506 59.922C49.4506 60.8162 49.4506 61.3527 49.4506 62.0681C49.4506 76.5545 49.4506 91.0408 49.4506 105.527C49.4506 108.567 49.4506 111.608 49.4506 114.827C49.4506 118.404 46.7678 120.192 43.3697 118.94C41.5812 118.225 41.4023 116.437 41.4023 114.827C41.4023 109.641 41.4023 104.633 41.4023 99.4465C41.4023 85.6755 41.4023 71.9045 41.4023 58.1335C41.4023 57.2393 41.4024 56.5239 41.5812 55.6297C41.7601 53.4836 43.3697 52.2317 45.337 52.2317C53.5641 52.2317 61.7912 52.2317 70.1971 52.2317C71.2702 52.2317 71.9856 52.2317 72.8799 51.3375C74.8472 49.0125 78.7819 49.3702 80.3916 50.0856C83.0743 51.5163 84.5051 54.0201 84.3263 56.8816C83.9686 59.7431 82.0012 62.0681 79.1396 62.7835C76.6357 63.4988 74.4895 62.4258 72.5222 60.8162C72.1645 60.4585 71.8068 60.2797 71.2702 60.1008C63.9374 59.7431 56.9623 59.922 49.4506 59.922Z" fill="#F54756"/>
</g>
<g clip-path="url(#clip0_1447_2831)">
<path d="M261.894 98.1632C261.894 113.5 248.6 123.862 227.829 123.862H194.595C190.857 123.862 187.533 120.546 187.533 116.401V38.0609C187.533 33.5015 191.272 29.771 195.842 29.771H226.583C245.692 29.771 257.324 38.8899 257.324 53.3974C257.324 63.7598 251.508 72.0498 241.123 74.9513C255.247 77.4382 261.894 86.5572 261.894 98.1632ZM198.334 39.3044V71.6353H224.09C238.63 71.6353 246.939 65.0033 246.939 54.6409C246.939 45.5219 238.63 39.3044 225.337 39.3044H198.334ZM251.093 96.9197C251.093 86.5572 242.369 80.7542 227.414 80.7542H198.334V113.914H227.414C242.369 113.914 251.093 106.868 251.093 96.9197ZM281.419 35.5739C281.419 31.429 284.327 28.5275 288.481 28.5275C292.635 28.5275 295.543 31.429 295.543 35.5739C295.543 39.3044 292.22 42.6204 288.481 42.6204C284.327 42.6204 281.419 39.3044 281.419 35.5739ZM293.881 65.0033V118.474C293.881 121.375 291.389 123.862 288.481 123.862C285.573 123.862 283.496 121.375 283.496 118.474V65.0033C283.496 62.1018 285.573 59.6148 288.481 59.6148C291.389 59.6148 293.881 62.1018 293.881 65.0033ZM416.431 47.1799V71.2208H450.911C453.225 71.2208 455.444 72.1379 457.08 73.7703C458.716 75.4027 459.635 77.6167 459.635 79.9252C459.635 82.2338 458.716 84.4478 457.08 86.0802C455.444 87.7126 453.225 88.6297 450.911 88.6297H416.431V114.329C416.431 119.303 412.277 123.862 406.877 123.862C401.891 123.862 397.737 119.303 397.737 114.329V35.9884C397.737 32.6725 400.23 29.771 403.553 29.771H457.143C459.456 29.771 461.675 30.688 463.311 32.3205C464.947 33.9529 465.867 36.1669 465.867 38.4754C465.867 40.784 464.947 42.998 463.311 44.6304C461.675 46.2628 459.456 47.1799 457.143 47.1799H416.431ZM547.289 90.7022C547.289 111.013 532.75 125.52 512.394 125.52C491.623 125.52 477.083 111.013 477.083 90.7022C477.083 70.3918 491.623 56.2988 512.394 56.2988C532.75 56.2988 547.289 70.3918 547.289 90.7022ZM529.011 90.7022C529.011 79.9252 522.364 72.4643 512.394 72.4643C502.008 72.4643 495.362 79.9252 495.362 90.7022C495.362 101.479 502.008 108.94 512.394 108.94C522.364 108.94 529.011 101.479 529.011 90.7022ZM601.71 66.2468C601.71 70.3918 598.802 73.7078 595.063 74.5368C588.001 76.1948 582.6 79.0962 578.446 83.6557V114.743C578.446 119.717 574.292 123.448 569.307 123.448C564.322 123.862 560.168 119.717 560.168 114.743V67.0758C560.168 62.1018 564.322 57.9568 569.722 57.9568H578.446V65.4178C581.77 62.1018 585.924 59.6148 590.909 58.3713C596.309 56.7133 601.71 60.8583 601.71 66.2468ZM723.844 86.9717V114.743C723.844 119.717 719.69 123.862 714.705 123.862C709.72 123.862 705.566 119.717 705.566 114.743V86.9717C705.566 77.0238 700.165 72.4643 692.272 72.4643C687.287 72.4643 682.302 74.1223 677.732 79.5107L678.148 86.1427V114.743C678.148 119.717 674.409 123.862 669.424 123.862C664.023 123.862 660.285 119.717 660.285 114.743V86.1427C660.285 75.7803 654.884 72.4643 647.822 72.4643C642.006 72.4643 637.021 74.9513 632.867 80.3397V114.743C632.867 119.717 628.712 123.862 623.727 123.862C618.742 123.862 614.588 119.717 614.588 114.743V65.8323C614.588 61.2728 618.327 57.9568 622.896 57.9568H632.867V62.1018C637.436 58.3713 642.421 56.2988 650.314 56.2988C659.038 56.2988 666.516 58.7858 671.501 64.5888C677.732 58.7858 684.794 56.2988 693.518 56.2988C711.382 56.2988 723.844 67.0758 723.844 86.9717ZM358.687 48.0089C358.687 45.5219 356.61 43.4494 354.118 43.4494H334.593V52.5684H354.118C356.61 52.5684 358.687 50.4959 358.687 48.0089Z" fill="#17283F"/>
<path d="M359.519 113.499C356.196 114.743 352.042 115.572 348.303 115.572C339.164 115.572 334.594 111.012 334.594 99.8206V41.3764C334.594 38.4749 332.101 35.9879 329.193 35.9879C326.286 35.9879 323.793 38.4749 323.793 41.3764V99.8206C324.208 116.815 331.686 125.52 347.472 125.52L354.534 124.691C358.273 124.276 360.766 120.546 359.935 116.815L359.519 113.499Z" fill="#17283F"/>
</g>
<defs>
<filter id="filter0_d_1447_2831" x="41.2528" y="31.6613" width="74.3605" height="88.8738" filterUnits="userSpaceOnUse" color-interpolation-filters="sRGB">
<feFlood flood-opacity="0" result="BackgroundImageFix"/>
<feColorMatrix in="SourceAlpha" type="matrix" values="0 0 0 0 0 0 0 0 0 0 0 0 0 0 0 0 0 0 127 0" result="hardAlpha"/>
<feOffset dx="0.448652" dy="0.598203"/>
<feGaussianBlur stdDeviation="0.299101"/>
<feComposite in2="hardAlpha" operator="out"/>
<feColorMatrix type="matrix" values="0 0 0 0 0 0 0 0 0 0 0 0 0 0 0 0 0 0 0.25 0"/>
<feBlend mode="normal" in2="BackgroundImageFix" result="effect1_dropShadow_1447_2831"/>
<feBlend mode="normal" in="SourceGraphic" in2="effect1_dropShadow_1447_2831" result="shape"/>
</filter>
<clipPath id="clip0_1447_2831">
<rect width="536.311" height="96.9925" fill="white" transform="translate(187.533 28.5275)"/>
</clipPath>
</defs>
</svg>
