<svg width="210" height="210" viewBox="0 0 210 210" fill="none" xmlns="http://www.w3.org/2000/svg">
<rect width="210" height="210" rx="10.29" fill="#D9D9D9"/>
<rect width="210" height="210" rx="10.29" fill="#17283F"/>
<rect x="0.269556" y="0.269556" width="209.461" height="209.461" rx="10.0204" stroke="white" stroke-opacity="0.2" stroke-width="0.539113"/>
<g filter="url(#filter0_d_1595_3447)">
<path d="M132.939 99.9945C135.178 100.741 137.168 101.238 138.909 101.984C149.604 106.71 156.32 114.669 158.558 125.862C161.294 138.795 156.569 150.983 145.376 159.19C139.157 163.667 132.193 165.657 124.482 165.657C113.538 165.657 102.594 165.906 91.401 165.906C89.9086 165.906 88.4162 165.409 87.1725 164.662C84.9339 163.17 84.4365 161.18 85.1827 158.693C85.9289 156.455 87.67 154.962 90.406 154.713C96.6243 154.713 102.594 154.713 108.812 154.713C114.782 154.713 120.751 154.713 126.721 154.713C137.665 154.713 147.117 145.013 147.614 134.069C148.112 122.877 139.904 113.425 129.208 111.187C128.711 111.187 128.213 111.187 127.716 111.187C117.518 111.187 107.32 111.187 97.1218 111.187C96.8731 111.187 96.6243 111.187 96.1269 111.187C96.1269 113.425 96.1269 115.664 96.1269 118.151C96.1269 120.638 96.1269 123.126 96.1269 125.613C96.1269 126.857 96.3756 127.354 97.868 127.354C104.086 127.354 110.305 127.354 116.274 127.354C117.269 127.354 118.264 126.857 119.01 126.11C123.487 122.38 127.467 123.126 130.701 125.115C134.929 128.1 135.924 132.826 133.934 137.303C131.447 142.277 123.985 144.018 119.756 140.039C118.513 138.795 117.269 138.298 115.528 138.298C107.32 138.298 99.1116 138.298 90.9035 138.298C87.1725 138.298 85.1827 136.308 85.1827 132.577C85.1827 123.374 85.1827 114.42 85.1827 105.218C85.1827 101.487 86.4263 99.7457 90.406 99.497C96.3756 99.2483 102.345 99.2483 108.315 99.2483C121.746 99.2483 131.944 87.5583 129.954 74.1273C128.462 64.9245 121.249 58.209 113.041 56.2192C111.051 55.7218 109.061 55.7218 107.071 55.7218C92.8934 55.7218 78.4669 55.4731 64.2893 55.7218C61.0558 55.7218 57.8223 52.9858 57.8223 49.7524C57.8223 46.519 60.807 44.0318 64.2893 44.0318C72.9949 44.0318 81.7005 44.0318 90.406 44.0318C96.3756 44.0318 102.345 44.0318 108.315 44.0318C123.239 44.2806 136.421 53.732 140.65 68.6554C143.635 79.1017 141.396 88.8019 134.929 97.7559C133.934 98.5021 133.437 98.9996 132.939 99.9945Z" fill="#F54756"/>
<path d="M64.2891 44.2682H108.311L109.004 44.2857C123.542 44.809 136.29 54.1326 140.423 68.7193V68.7203C143.382 79.0774 141.172 88.6941 134.756 97.5904C133.764 98.337 133.243 98.8612 132.729 99.8893L132.606 100.132L132.864 100.218C135.128 100.973 137.085 101.459 138.815 102.201C149.445 106.898 156.105 114.797 158.327 125.908V125.911C161.001 138.549 156.502 150.467 145.753 158.615L145.238 158.999C139.065 163.443 132.149 165.421 124.482 165.421C119.009 165.421 113.535 165.483 108.032 165.546C102.529 165.608 96.9961 165.67 91.4014 165.67C90.0497 165.67 88.6897 165.247 87.5244 164.593L87.2939 164.46C86.2154 163.738 85.5739 162.91 85.2832 161.98C84.9908 161.044 85.0448 159.975 85.4092 158.76L85.4082 158.759C86.1249 156.618 87.7826 155.192 90.418 154.95H126.721C137.801 154.95 147.347 145.14 147.85 134.081V134.08C148.353 122.76 140.054 113.215 129.257 110.956L129.232 110.951H95.8906V125.613C95.8906 126.23 95.947 126.753 96.2617 127.107C96.5832 127.468 97.1132 127.59 97.8682 127.59H116.274C117.339 127.59 118.383 127.063 119.161 126.292C121.365 124.455 123.429 123.734 125.325 123.704C127.22 123.674 128.975 124.333 130.563 125.308H130.564C134.69 128.22 135.665 132.817 133.723 137.197C132.516 139.609 130.096 141.25 127.45 141.797C124.806 142.345 121.966 141.794 119.918 139.867C119.281 139.23 118.635 138.777 117.918 138.484C117.199 138.19 116.422 138.062 115.528 138.062H90.9033C89.0782 138.062 87.7165 137.575 86.8105 136.67C85.9047 135.764 85.4189 134.402 85.4189 132.577V105.217C85.419 103.369 85.729 102.073 86.4805 101.206C87.2282 100.343 88.4572 99.8548 90.4199 99.732C96.3823 99.4837 102.346 99.484 108.314 99.484C121.889 99.484 132.199 87.6665 130.188 74.0924V74.0894L130.112 73.6549C128.45 64.5719 121.257 57.9681 113.097 55.9898H113.098C111.075 55.4843 109.057 55.4859 107.071 55.4859C92.9001 55.4859 78.4666 55.2362 64.2871 55.485C62.7356 55.4843 61.1746 54.8272 60.001 53.774C58.8271 52.7206 58.0586 51.2885 58.0586 49.7525C58.0586 46.6797 60.9049 44.2683 64.2891 44.2682Z" stroke="white" stroke-opacity="0.2" stroke-width="0.471964"/>
<path d="M68.771 83.3338C68.771 84.5774 68.771 85.3236 68.771 86.3185C68.771 106.465 68.771 126.612 68.771 146.758C68.771 150.986 68.771 155.215 68.771 159.692C68.771 164.666 65.0401 167.153 60.3142 165.412C57.8269 164.417 57.5781 161.93 57.5781 159.692C57.5781 152.479 57.5781 145.515 57.5781 138.302C57.5781 119.15 57.5781 99.9982 57.5781 80.8466C57.5781 79.603 57.5781 78.6081 57.8269 77.3645C58.0756 74.3798 60.3142 72.6387 63.0502 72.6387C74.4918 72.6387 85.9335 72.6387 97.6239 72.6387C99.1163 72.6387 100.111 72.6387 101.355 71.3951C104.091 68.1617 109.563 68.6592 111.802 69.654C115.533 71.6438 117.522 75.126 117.274 79.1055C116.776 83.0851 114.04 86.3185 110.06 87.3134C106.578 88.3083 103.593 86.8159 100.857 84.5774C100.36 84.08 99.8624 83.8312 99.1162 83.5825C88.9183 83.0851 79.2177 83.3338 68.771 83.3338Z" fill="#F54756"/>
<path d="M106.783 69.1738C108.735 69.0213 110.619 69.389 111.699 69.8671C115.343 71.8142 117.276 75.2033 117.039 79.0761C116.553 82.9625 113.885 86.1135 110.003 87.0839L109.996 87.0869C106.629 88.0488 103.727 86.6183 101.013 84.3984C100.484 83.8734 99.95 83.6116 99.1904 83.3584L99.1602 83.3486L99.1279 83.3466L97.2197 83.2617C87.7054 82.8788 78.5579 83.0976 68.7715 83.0976H68.5352V159.691C68.5352 162.119 67.6265 163.903 66.1826 164.875C64.7384 165.847 62.7097 166.042 60.4014 165.193C59.2293 164.724 58.589 163.91 58.2354 162.937C57.8775 161.953 57.8145 160.807 57.8145 159.691V80.8466C57.8145 79.602 57.8151 78.6289 58.0586 77.4111L58.0625 77.3837C58.1821 75.949 58.777 74.8259 59.6602 74.0605C60.545 73.2937 61.7319 72.875 63.0498 72.875H97.624C98.3629 72.875 99.0169 72.8765 99.6426 72.7119C100.279 72.5443 100.875 72.209 101.521 71.5625L101.528 71.5546L101.535 71.5478C102.847 69.9969 104.828 69.3265 106.783 69.1738Z" stroke="white" stroke-opacity="0.2" stroke-width="0.471964"/>
</g>
<defs>
<filter id="filter0_d_1595_3447" x="57.4768" y="44.0318" width="102.549" height="122.745" filterUnits="userSpaceOnUse" color-interpolation-filters="sRGB">
<feFlood flood-opacity="0" result="BackgroundImageFix"/>
<feColorMatrix in="SourceAlpha" type="matrix" values="0 0 0 0 0 0 0 0 0 0 0 0 0 0 0 0 0 0 127 0" result="hardAlpha"/>
<feOffset dx="0.303925" dy="0.405234"/>
<feGaussianBlur stdDeviation="0.202617"/>
<feComposite in2="hardAlpha" operator="out"/>
<feColorMatrix type="matrix" values="0 0 0 0 0 0 0 0 0 0 0 0 0 0 0 0 0 0 0.25 0"/>
<feBlend mode="normal" in2="BackgroundImageFix" result="effect1_dropShadow_1595_3447"/>
<feBlend mode="normal" in="SourceGraphic" in2="effect1_dropShadow_1595_3447" result="shape"/>
</filter>
</defs>
</svg>
